<svg width="114" height="29" viewBox="0 0 114 29" fill="none" xmlns="http://www.w3.org/2000/svg">
<rect x="0.000488281" y="13.2129" width="32" height="1.54334" rx="0.771672" fill="#E3B873"/>
<rect x="82.0005" y="13.2129" width="32" height="1.54334" rx="0.771672" fill="#E3B873"/>
<path d="M64.8924 22.0529C64.1458 22.7529 64.1458 23.9196 64.8924 24.6663C65.2658 25.0396 65.7324 25.2263 66.1991 25.2263C66.6657 25.2263 67.1324 25.0396 67.5057 24.6663C68.2524 23.9663 68.2524 22.7996 67.5057 22.0529C66.8058 21.3063 65.6391 21.3063 64.8924 22.0529ZM66.8524 24.0596C66.4791 24.4329 65.9191 24.4329 65.5458 24.0596C65.1725 23.6862 65.1724 23.1262 65.5458 22.7529C65.7324 22.5663 65.9658 22.4729 66.1991 22.4729C66.4325 22.4729 66.6658 22.5663 66.8525 22.7529C67.2258 23.1263 67.2258 23.6863 66.8524 24.0596Z" fill="#E3B873"/>
<path d="M70.6796 22.6129L62.2796 14.2129L65.593 10.8995L65.5931 10.8995L67.553 8.93954L67.5531 8.93948L70.3997 6.09289C71.193 5.29954 71.193 3.99289 70.3997 3.19954L68.0197 0.819539C67.6464 0.446242 67.133 0.212891 66.573 0.212891C66.013 0.212891 65.4996 0.446242 65.1264 0.819539L62.2797 3.66619L60.3197 5.62619L57.0064 8.93954L48.6996 0.632891C48.1863 0.119539 47.253 0.119539 46.7396 0.632891L43.4263 3.94624C42.8663 4.45959 42.8663 5.34624 43.4263 5.90624L44.4063 6.88624L47.0663 9.54624L49.6796 12.1595C49.6796 12.1595 49.6796 12.1595 49.6797 12.1596L51.733 14.2129L44.2416 21.7043C44.1019 21.7659 44.0266 21.8919 43.9863 22.0529L43.0063 27.6529C43.0063 27.8395 43.053 27.9795 43.1463 28.0729C43.2396 28.1662 43.333 28.2129 43.473 28.2129C43.5196 28.2129 43.5196 28.2129 43.5663 28.2129L48.9501 27.2176C48.9873 27.2274 49.0275 27.2329 49.073 27.2329C49.213 27.2329 49.353 27.1862 49.3996 27.0929L57.0063 19.4862L57.6129 20.0929C57.6129 20.0929 57.6129 20.0929 57.613 20.0929L57.6131 20.093L58.9196 21.3996C58.9196 21.3996 58.9196 21.3996 58.9197 21.3996L58.9198 21.3997L65.4064 27.8863C65.6397 28.1196 65.9197 28.2129 66.1997 28.2129C66.4797 28.2129 66.7597 28.1196 66.9464 27.8863L70.6797 24.1529C71.0997 23.7329 71.0996 23.0329 70.6796 22.6129ZM49.073 26.0662L47.4401 24.4334L62.9559 8.9624L64.5664 10.5729L49.073 26.0662ZM65.7796 1.47289C66.1996 1.05289 66.9463 1.05289 67.3663 1.47289L69.7463 3.85289C70.1663 4.27289 70.1663 5.01954 69.7463 5.43954L67.2263 7.95954L63.2596 3.99289L65.7796 1.47289ZM62.6064 4.64624L64.5897 6.62959L66.573 8.61289L65.2664 9.91954L61.2997 5.95289L62.6064 4.64624ZM51.9896 13.1629L52.993 12.1595C53.1796 11.9729 53.1796 11.6929 52.993 11.5062C52.8063 11.3195 52.5264 11.3195 52.3396 11.5062L51.3363 12.5095L50.6596 11.8329L52.293 10.1995C52.4796 10.0129 52.4796 9.73289 52.293 9.54619C52.1063 9.35948 51.8264 9.35954 51.6396 9.54619L50.0063 11.1795L49.3529 10.5262L50.3329 9.54619C50.5196 9.35954 50.5196 9.07954 50.3329 8.89284C50.1463 8.70613 49.8663 8.70619 49.6796 8.89284L48.6996 9.87284L48.0462 9.21948L49.6796 7.58613C49.8662 7.39948 49.8662 7.11948 49.6796 6.93278C49.4929 6.74608 49.2129 6.74613 49.0262 6.93278L47.393 8.56624L46.693 7.86624L47.673 6.88624C47.8596 6.69959 47.8596 6.41959 47.673 6.23289C47.4863 6.04619 47.2063 6.04624 47.0196 6.23289L46.0396 7.21289L45.3863 6.55954L47.0196 4.92619C47.2063 4.73954 47.2063 4.45954 47.0196 4.27284C46.833 4.08613 46.553 4.08619 46.3663 4.27284L44.733 5.90624L44.0796 5.25289C43.893 5.06624 43.893 4.78624 44.0796 4.59954L47.393 1.28624C47.4863 1.19289 47.5796 1.14624 47.7196 1.14624C47.813 1.14624 47.953 1.19289 48.0463 1.28624L56.353 9.59289L52.3863 13.5595L51.9896 13.1629ZM60.6464 6.65289L62.2792 8.28575L46.7635 23.7567L45.153 22.1462L60.6464 6.65289ZM44.7796 23.0795L46.3107 24.6106C46.334 24.6639 46.3679 24.7145 46.413 24.7595L48.0999 26.4464L44.0797 27.1395L44.7796 23.0795ZM70.0264 23.4995L66.293 27.2329C66.2464 27.2795 66.1064 27.2795 66.0597 27.2329L61.2296 22.4029L62.8863 20.7462C63.0729 20.5596 63.0729 20.2796 62.8863 20.0929C62.6996 19.9062 62.4196 19.9062 62.2329 20.0929L60.5763 21.7495L59.8996 21.0729L60.8797 20.0929C61.0663 19.9062 61.0663 19.6262 60.8797 19.4395C60.693 19.2529 60.413 19.2529 60.2263 19.4395L59.2463 20.4195L58.5929 19.7662L60.2263 18.1328C60.4129 17.9462 60.4129 17.6662 60.2263 17.4795C60.0396 17.2928 59.7596 17.2928 59.5729 17.4795L57.9396 19.1129L57.6596 18.8329L61.6263 14.8662L70.0263 23.2662C70.073 23.3129 70.073 23.4529 70.0264 23.4995Z" fill="#E3B873"/>
</svg>
