<svg xmlns="http://www.w3.org/2000/svg" viewBox="0 0 62 62" width="62" height="62">
	<style>
		tspan { white-space:pre }
		.shp0 { opacity: 0.722;fill: #f5c506 } 
		.shp1 { fill: #f5f4f2 } 
	</style>
	<path id="Ellipse 2 copy 2" class="shp0" d="M31.5 1C48.34 1 62 14.66 62 31.5C62 48.34 48.34 62 31.5 62C14.66 62 1 48.34 1 31.5C1 14.66 14.66 1 31.5 1Z" />
	<path id="Shape 10 copy 2" class="shp1" d="M25.59 18.4C25.59 17.58 25.98 17 26.76 16.67C27.55 16.33 28.25 16.47 28.86 17.07L42.33 30.57C42.72 30.95 42.9 31.41 42.88 31.95C42.88 32.47 42.7 32.91 42.33 33.28L28.86 46.83C28.25 47.45 27.55 47.58 26.76 47.23C25.98 46.9 25.59 46.3 25.59 45.45L25.59 18.4L25.59 18.4Z" />
</svg>