<svg xmlns="http://www.w3.org/2000/svg" viewBox="0 0 22 22" width="22" height="22">
	<style>
		tspan { white-space:pre }
		.shp0 { fill: #b99403 } 
	</style>
	<path id="Shape 6" class="shp0" d="M15.96 2.58C15 3.53 15 5.08 15.96 6.03C16.91 6.99 18.46 6.99 19.42 6.03L20.82 4.63C20.92 5.04 21 5.45 21 5.88C21 8.58 18.81 10.77 16.11 10.77C15.67 10.77 15.25 10.69 14.84 10.58C14.83 10.6 14.82 10.61 14.81 10.63L6.16 19.26C5.2 20.22 3.65 20.22 2.7 19.26C1.74 18.31 1.74 16.76 2.7 15.81L11.35 7.18C11.36 7.16 11.38 7.16 11.4 7.14C11.29 6.74 11.21 6.32 11.21 5.88C11.21 3.19 13.4 1 16.11 1C16.54 1 16.96 1.07 17.36 1.18L15.96 2.58ZM4.48 16.87C4.15 16.87 3.87 17.14 3.87 17.48C3.87 17.82 4.15 18.09 4.48 18.09C4.82 18.09 5.1 17.82 5.1 17.48C5.1 17.14 4.82 16.87 4.48 16.87Z" />
</svg>