<svg xmlns="http://www.w3.org/2000/svg" viewBox="0 0 26 20" width="26" height="20">
	<style>
		tspan { white-space:pre }
		.shp0 { fill: #b99403 } 
	</style>
	<g id="bnner+header">
		<g id="main_nav">
			<path id="Shape 7" class="shp0" d="M23.74 18.3L15.46 10.02L21.58 3.9L23.76 1.73C23.9 1.96 24 2.21 24 2.5L24 17.5C24 17.8 23.89 18.06 23.74 18.3ZM21.05 3.37L18.26 6.16L12.91 11.51L11.98 12.45L2.95 3.41L1.45 1.91L0.76 1.23C0.98 1.1 1.22 1 1.5 1L22.5 1C22.76 1 23 1.09 23.22 1.21L22.46 1.96L21.05 3.37ZM0.91 2.45L8.47 10L0.23 18.24C0.1 18.02 0 17.78 0 17.5L0 2.5C0 2.22 0.1 1.98 0.23 1.76L0.91 2.45L0.91 2.45ZM9 10.53L9.32 10.85L9.43 10.96L10.46 11.99L11.96 13.49L12.02 13.43L12.04 13.44L13.45 12.04L14.93 10.55L23.19 18.81C22.98 18.92 22.75 19 22.5 19L1.5 19C1.22 19 0.98 18.9 0.76 18.77L9 10.53Z" />
		</g>
	</g>
</svg>